<svg xmlns="http://www.w3.org/2000/svg" viewBox="0 0 417.54 363.28"><defs><style>.cls-1{fill:none;stroke:#fff;stroke-miterlimit:10;stroke-width:0.75px;}</style></defs><g id="Layer_2" data-name="Layer 2"><g id="HOME"><g id="SERVICIOS_ACT" data-name="SERVICIOS ACT"><path class="cls-1" d="M210.72,3.57h-10.9a16.58,16.58,0,0,0-16.58,16.58v107.4H135.91"/><path class="cls-1" d="M214.72,362.9H198.53a15.28,15.28,0,0,1-15.29-15.29V127.55H310.06a15.3,15.3,0,0,1,15.29,15.29v41.57a8.31,8.31,0,0,0,8.3,8.31h0"/><path class="cls-1" d="M183.24,236.58H158.86A15.41,15.41,0,0,0,143.45,252v25.14a16.58,16.58,0,0,1-16.59,16.58H0"/><g id="SERVICIOS_TODO_ACTIVO" data-name="SERVICIOS TODO ACTIVO"><path class="cls-1" d="M294.61.38H283.7A16.58,16.58,0,0,0,267.12,17V124.35H219.79"/><path class="cls-1" d="M298.61,359.7h-16.2a15.28,15.28,0,0,1-15.29-15.28V124.35H393.94a15.3,15.3,0,0,1,15.29,15.29v41.58a8.31,8.31,0,0,0,8.31,8.31h0"/><path class="cls-1" d="M267.12,233.38H242.74a15.41,15.41,0,0,0-15.41,15.42v25.13a16.59,16.59,0,0,1-16.58,16.59H83.88"/></g></g></g></g></svg>