<svg xmlns="http://www.w3.org/2000/svg" viewBox="0 0 24.7 25.19"><defs><style>.cls-1{fill:#fff;}</style></defs><g id="Layer_2" data-name="Layer 2"><g id="Capa_1" data-name="Capa 1"><path class="cls-1" d="M12.36,0H20.9a.71.71,0,0,1,.71.45q1.5,3.06,3,6.09a.68.68,0,0,1-.05.76L12.79,24.85c-.31.46-.62.45-.92,0Q6,16.09.12,7.31a.66.66,0,0,1,0-.76c1-2,2-4.09,3-6.14A.65.65,0,0,1,3.79,0Zm-4,7.39,3.88,15.43h0l4-15.43Zm15.06,0H17.48c-.29,0-.4.07-.47.36q-1.65,6.71-3.32,13.43c-.09.35-.17.69-.26,1h.05Zm-16,0H1.25l9.91,14.82h.06Q9.36,14.79,7.49,7.4Zm8.75-.93V6.32c-.34-1.75-.69-3.5-1-5.25,0-.16-.12-.18-.25-.18H9.7c-.17,0-.22,0-.26.22-.26,1.36-.53,2.72-.8,4.08-.08.41-.16.83-.25,1.27Zm.94,0H23.5V6.34L20.89,1.07C20.82.91,20.71.9,20.57.9H16.08ZM8.5.93H4.06c-.19,0-.23.11-.29.23l-2.51,5-.12.26H7.47Z"/></g></g></svg>