<svg xmlns="http://www.w3.org/2000/svg" viewBox="0 0 34.29 18.26"><defs><style>.cls-1{fill:#fff;}</style></defs><g id="Layer_2" data-name="Layer 2"><g id="Capa_1" data-name="Capa 1"><path class="cls-1" d="M33.93,8.59c-.73-.74-1.49-1.46-2.23-2.2-.12-.13-.19-.32-.32-.42C31,5.66,30.5,5.37,30,5h0a.36.36,0,0,1-.21-.31h0l.06.16-.37-.27a27.35,27.35,0,0,0-5.12-3A17,17,0,0,0,12.85.55,24.33,24.33,0,0,0,4.71,4.62l-.36.26.05-.15-.12.07A.4.4,0,0,1,4,5.12c-.28.24-.54.45-.8.65s-.52.42-.77.65C1.74,7.17,1,7.88.24,8.63a.64.64,0,0,0-.1.9l.1.1c.73.74,1.49,1.46,2.23,2.2.12.12.19.32.32.42.43.31.88.59,1.39.93h0a.41.41,0,0,1,.1.13.41.41,0,0,1,.25.15l.23.16a26.3,26.3,0,0,0,5.12,3,16.91,16.91,0,0,0,11.5,1.09,24.19,24.19,0,0,0,8.13-4.07l.36-.26v.06l.24-.14a.67.67,0,0,1,.2,0H30.1c.55-.51,1.15-.89,1.65-1.39.72-.73,1.47-1.44,2.2-2.18a.65.65,0,0,0,0-1.14ZM1.4,9.11a28.54,28.54,0,0,1,9.86-6.77,9.75,9.75,0,0,0,0,13.53A28.38,28.38,0,0,1,1.4,9.11ZM21.79,15.2a7,7,0,0,1-9.89-.44,7.59,7.59,0,0,1-.73-1,8.5,8.5,0,0,1-1.42-5A7.86,7.86,0,0,1,12.49,3a6.91,6.91,0,0,1,9.75.49l.25.29A8.39,8.39,0,0,1,21.79,15.2Zm1.11.68a9.75,9.75,0,0,0,0-13.53,28.52,28.52,0,0,1,9.86,6.76A28.41,28.41,0,0,1,22.9,15.88Z"/><path class="cls-1" d="M12.08,12l-.92-.86L12.29,10l1.79-1.78c.44-.44.72-.43,1.16,0l1.61,1.61.21.19L20.4,6.67H18.92V5.45h3a.58.58,0,0,1,.65.49V9.06h-1.2V7.62l-.14-.1a1.57,1.57,0,0,1-.18.31l-3.41,3.42c-.41.41-.71.41-1.13,0L14.64,9.38Z"/><path class="cls-1" d="M14.08,12.79h1.18V14H14.08Z"/><path class="cls-1" d="M20.08,12.8V14H18.93V12.8Z"/><path class="cls-1" d="M17.67,12.79V14H16.5V12.79Z"/></g></g></svg>