<svg id="Capa_1" data-name="Capa 1" xmlns="http://www.w3.org/2000/svg" viewBox="0 0 150 150"><defs><style>.cls-1{fill:#fff;}.cls-2,.cls-3,.cls-4{fill:#0885e6;}.cls-2,.cls-4{stroke:#0885e6;stroke-miterlimit:10;}.cls-2{stroke-width:1.43px;}.cls-4{stroke-width:0.36px;}</style></defs><title>[ACQ] Diseño Interfaz_iconografia</title><rect class="cls-1" x="43.12" y="43.12" width="63.75" height="63.75" rx="31.88"/><path class="cls-2" d="M92,87.89H62.7V58.59a.72.72,0,0,0-1.43,0v29.3H59.13a.72.72,0,1,0,0,1.43h2.14v2.14a.72.72,0,1,0,1.43,0V89.32H92a.72.72,0,0,0,0-1.43Z"/><path class="cls-3" d="M66,72.12a.72.72,0,0,0,.78-.15l3.07-3.07,7.35,7.35a.71.71,0,0,0,1,0l2.36-2.35L91.5,84.83a.71.71,0,0,0,1-1L81.08,72.39a.71.71,0,0,0-1,0l-2.35,2.35-6.85-6.85,3.06-3.07a.72.72,0,0,0,0-1,.75.75,0,0,0-.51-.21H66.28a.71.71,0,0,0-.71.72v7.14A.71.71,0,0,0,66,72.12Z"/><path class="cls-4" d="M62,92.18a.72.72,0,0,1-.72-.72V58.59a.72.72,0,0,1,1.43,0V91.46A.71.71,0,0,1,62,92.18Z"/><path class="cls-4" d="M92,89.32H59.13a.72.72,0,1,1,0-1.43H92a.72.72,0,0,1,0,1.43Z"/><path class="cls-4" d="M69.86,67.17a.71.71,0,0,1,.5.21l7.36,7.36,2.35-2.35a.71.71,0,0,1,1,0L92.51,83.82a.71.71,0,0,1-1,1L80.58,73.9l-2.36,2.35a.71.71,0,0,1-1,0l-7.86-7.86a.71.71,0,0,1,0-1A.75.75,0,0,1,69.86,67.17Z"/></svg>