<svg id="Capa_1" data-name="Capa 1" xmlns="http://www.w3.org/2000/svg" xmlns:xlink="http://www.w3.org/1999/xlink" viewBox="0 0 150 150"><defs><style>.cls-1{fill:none;}.cls-2{fill:#fff;}.cls-3{clip-path:url(#clip-path);}.cls-4{fill:#0885e6;}</style><clipPath id="clip-path"><rect class="cls-1" x="43.12" y="43.12" width="63.75" height="63.75" rx="31.88"/></clipPath></defs><title>[ACQ] Diseño Interfaz_iconografia</title><rect class="cls-2" x="43.12" y="43.12" width="63.75" height="63.75" rx="31.88"/><g class="cls-3"><path class="cls-4" d="M85.39,75.32H80.61a1.2,1.2,0,0,0-1.13.81L78.22,79.9,77,76.13a1.21,1.21,0,0,0-1.14-.81H74.38l-2.17-8.65a1.19,1.19,0,0,0-2.31,0l-2.17,8.65H63.89a1.2,1.2,0,1,0,0,2.39h4.78a1.2,1.2,0,0,0,1.15-.91l1.24-4.92,1.23,4.92a1.2,1.2,0,0,0,1.15.91H75l2.12,6.35a1.2,1.2,0,0,0,1.13.81,1.21,1.21,0,0,0,1.14-.81l2.11-6.35h3.92a1.2,1.2,0,0,0,0-2.39Z"/><path class="cls-4" d="M112.2,104.45C110.66,103,95,88.72,92.74,86.7A21.5,21.5,0,1,0,86,93.43l18,19.68a6,6,0,1,0,8.22-8.66ZM61,88.71a19.11,19.11,0,1,1,27.07,0A19.11,19.11,0,0,1,61,88.71Zm27.11,3.45,0,0L88,92a20.6,20.6,0,0,0,3.36-3.37l2.75,2.51-3.6,3.6Z"/><path class="cls-4" d="M87.47,64.61a1.19,1.19,0,1,0-1.84,1.52,14.33,14.33,0,1,1-7.31-4.73,1.19,1.19,0,1,0,.62-2.3,16.72,16.72,0,1,0,8.53,5.51Z"/></g></svg>