<svg id="Capa_1" data-name="Capa 1" xmlns="http://www.w3.org/2000/svg" viewBox="0 0 150 150"><defs><style>.cls-1{fill:#fff;}.cls-2{fill:#0885e6;}</style></defs><title>[ACQ] Diseño Interfaz_iconografia</title><rect class="cls-1" x="43.12" y="43.12" width="63.75" height="63.75" rx="31.88"/><path class="cls-2" d="M85.34,59.26H65.27a5.59,5.59,0,0,0-5.59,5.59V84.91a5.59,5.59,0,0,0,5.59,5.59H85.34a5.59,5.59,0,0,0,5.59-5.59V64.85a5.59,5.59,0,0,0-5.59-5.59ZM89.1,84.91a3.76,3.76,0,0,1-3.76,3.76H65.27a3.76,3.76,0,0,1-3.76-3.76V64.85a3.76,3.76,0,0,1,3.76-3.76H85.34a3.76,3.76,0,0,1,3.76,3.76Z"/><path class="cls-2" d="M86.09,66.12H72.15a2.87,2.87,0,0,0-5.45,0H64.52a.92.92,0,0,0,0,1.83H66.7a2.87,2.87,0,0,0,5.45,0H86.09a.92.92,0,1,0,0-1.83Z"/><path class="cls-2" d="M86.09,74H83.92a2.88,2.88,0,0,0-5.46,0H64.52a.92.92,0,0,0,0,1.84H78.46a2.88,2.88,0,0,0,5.46,0h2.17a.92.92,0,0,0,0-1.84Z"/><path class="cls-2" d="M86.09,81.81h-10a2.87,2.87,0,0,0-5.45,0h-6.1a.92.92,0,0,0,0,1.83h6.1a2.87,2.87,0,0,0,5.45,0h10a.92.92,0,1,0,0-1.83Z"/></svg>