<svg xmlns="http://www.w3.org/2000/svg" viewBox="0 0 14.5 14.55"><defs><style>.cls-1{fill:#232323;}.cls-2{fill:#fff;}</style></defs><g id="Layer_2" data-name="Layer 2"><g id="Capa_1" data-name="Capa 1"><path class="cls-1" d="M0,10.71V3.79A3.81,3.81,0,0,1,3.79,0h6.92A3.81,3.81,0,0,1,14.5,3.79v6.92a3.81,3.81,0,0,1-3.79,3.79H8.38l-1.21-.25-1,.3H3.79A3.82,3.82,0,0,1,0,10.72Z"/><path class="cls-2" d="M10.07,9.58l.32-2.09h-2V6.13A1,1,0,0,1,9.23,5a1.29,1.29,0,0,1,.34,0h.92V3.25a11.07,11.07,0,0,0-1.62-.14A2.56,2.56,0,0,0,6.12,5.47a2.36,2.36,0,0,0,0,.46v1.6H4.25V9.62H6.09v4.92H8.35v-5Z"/></g></g></svg>