<svg xmlns="http://www.w3.org/2000/svg" viewBox="0 0 29.24 29.24"><defs><style>.cls-1{fill:#fff;}.cls-2{fill:#0885e6;}</style></defs><g id="Layer_2" data-name="Layer 2"><g id="Capa_1" data-name="Capa 1"><path class="cls-1" d="M0,21.62v-14A7.67,7.67,0,0,1,7.62,0h14a7.67,7.67,0,0,1,7.62,7.62v14a7.67,7.67,0,0,1-7.62,7.62H16.9l-2.45-.62-2.11.6H7.62A7.67,7.67,0,0,1,0,21.62Z"/><path class="cls-2" d="M20.31,19.33,21,15.1H16.9V12.36a2.12,2.12,0,0,1,1.92-2.3,2.44,2.44,0,0,1,.47,0h1.84V6.48a22.32,22.32,0,0,0-3.27-.29c-3.34,0-5.52,2-5.52,5.69V15.1H8.62v4.23h3.72v9.91H16.9V19.33Z"/></g></g></svg>