<svg xmlns="http://www.w3.org/2000/svg" viewBox="0 0 29.24 29.24"><defs><style>.cls-1{fill:#fff;}.cls-2{fill:#0885e6;}</style></defs><g id="Layer_2" data-name="Layer 2"><g id="Capa_1" data-name="Capa 1"><rect class="cls-1" width="29.24" height="29.24" rx="7.65"/><path class="cls-2" d="M14.69,10.4a4.22,4.22,0,1,0,4.22,4.22,4.22,4.22,0,0,0-4.22-4.22Zm0,6.92a2.7,2.7,0,1,1,2.7-2.7h0A2.7,2.7,0,0,1,14.69,17.32Z"/><path class="cls-2" d="M18,23.19H11.2A5.17,5.17,0,0,1,6.05,18V11.2A5.17,5.17,0,0,1,11.2,6.05H18a5.17,5.17,0,0,1,5.15,5.15V18A5.17,5.17,0,0,1,18,23.19ZM11.2,7.62a3.55,3.55,0,0,0-3.58,3.52V18a3.55,3.55,0,0,0,3.52,3.58H18a3.55,3.55,0,0,0,3.58-3.52V11.2A3.55,3.55,0,0,0,18.1,7.62H11.2Z"/></g></g></svg>