<svg xmlns="http://www.w3.org/2000/svg" viewBox="0 0 14.5 14.5"><defs><style>.cls-1{fill:#232323;}.cls-2{fill:#fff;}</style></defs><g id="Layer_2" data-name="Layer 2"><g id="Capa_1" data-name="Capa 1"><rect class="cls-1" width="14.5" height="14.5" rx="3.79"/><path class="cls-2" d="M9.5,4.52A.5.5,0,1,0,10,5,.5.5,0,0,0,9.5,4.52Z"/><path class="cls-2" d="M7.25,5.16A2.09,2.09,0,1,0,9.38,7.25,2.1,2.1,0,0,0,7.25,5.16Zm0,3.43A1.34,1.34,0,1,1,8.63,7.25,1.34,1.34,0,0,1,7.25,8.59Z"/><path class="cls-2" d="M9,11.5H5.55A2.56,2.56,0,0,1,3,9V5.55A2.56,2.56,0,0,1,5.55,3H9A2.56,2.56,0,0,1,11.5,5.55V9A2.56,2.56,0,0,1,9,11.5ZM5.55,3.8A1.77,1.77,0,0,0,3.8,5.55V9A1.77,1.77,0,0,0,5.55,10.7H9A1.77,1.77,0,0,0,10.7,9V5.55A1.77,1.77,0,0,0,9,3.8Z"/></g></g></svg>