<svg xmlns="http://www.w3.org/2000/svg" viewBox="0 0 63.69 19.12"><defs><style>.cls-1{fill:#fff;}.cls-2{fill:#0885e6;}</style></defs><g id="Layer_2" data-name="Layer 2"><g id="MENU_ACT" data-name="MENU ACT"><path class="cls-1" d="M56.57,16.28c.18-.18.35-.37.52-.56A9.45,9.45,0,0,0,49.26.1a9.32,9.32,0,0,0-4.74,1.69,9.46,9.46,0,0,0,9.35,16.39l.28.29a1.73,1.73,0,0,0,1.23.52h3l-1.87-1.87a.59.59,0,0,1,0-.84M43.24,10.15a6.73,6.73,0,1,1,10.95,4.59,6.07,6.07,0,0,1-1.17.77,6.47,6.47,0,0,1-1.39.54,6.74,6.74,0,0,1-2.17.2,7.06,7.06,0,0,1-6.22-6.1"/><path class="cls-1" d="M36.6,12.43h1.92A9.49,9.49,0,0,1,20.1,10.89,9.19,9.19,0,0,1,20,9.5a9.83,9.83,0,0,1,.09-1.34,9.49,9.49,0,0,1,18.52-1.3H36.87A1.88,1.88,0,0,1,35.27,6,6.76,6.76,0,0,0,22.86,8.16a6.55,6.55,0,0,0-.13,1.34,7.12,7.12,0,0,0,.14,1.39,6.77,6.77,0,0,0,12.25,2.36,1.8,1.8,0,0,1,1.48-.82"/><path class="cls-1" d="M20.5,18.05h0l-10-18c-2,3.52-2,3,0,6.51,1.36,2.53,3.83,6.9,5.36,9.25S18.36,18.65,21,19l-.52-.94"/><path class="cls-1" d="M6.44,7.35h0L5.17,9.65,0,19c4.22,0,5.69-4.35,7.67-7.35h0L8.91,9.4l0,0,0,0a18.76,18.76,0,0,1-2.51-2"/><path class="cls-2" d="M6.44,7.35A18.76,18.76,0,0,0,9,9.34c1-1.49-.51-3.19-1.13-4.49L6.44,7.35"/><rect class="cls-1" x="59.56" y="15.34" width="0.49" height="3.63"/><polygon class="cls-1" points="63.69 15.34 60.43 15.34 60.43 15.86 61.77 15.86 61.77 16.13 61.77 16.31 61.77 18.99 62.3 18.99 62.3 16.31 62.3 16.13 62.3 15.86 63.69 15.86 63.69 15.34"/></g></g></svg>