<svg xmlns="http://www.w3.org/2000/svg" viewBox="0 0 38.4 38.4"><defs><style>.cls-1{fill:#fff;}.cls-2{fill:#02303f;}.cls-3{fill:#0885e6;}</style></defs><g id="Layer_2" data-name="Layer 2"><g id="Capa_1" data-name="Capa 1"><path class="cls-1" d="M18.91,38.4h0A19.2,19.2,0,1,1,38.4,19.2,19.21,19.21,0,0,1,18.91,38.4"/><g id="A"><path class="cls-2" d="M29.56,27.1h0L18.91,7.86c-2.11,3.74-2.11,3.2,0,6.94,1.45,2.69,4.08,7.35,5.72,9.85s2.65,3.08,5.48,3.45Z"/><path class="cls-2" d="M14.58,15.69h0L13.21,18.2h0l-5.5,10c4.5,0,6.06-4.63,8.18-7.84h0c.11-.21,1.1-2,1.32-2.39h0A21.19,21.19,0,0,1,14.58,15.69Z"/><path class="cls-3" d="M14.58,15.69a20.79,20.79,0,0,0,2.66,2.12h0c1.11-1.58-.53-3.4-1.19-4.78Z"/></g></g></g></svg>