<svg xmlns="http://www.w3.org/2000/svg" viewBox="0 0 101.17 30.37"><defs><style>.cls-1{fill:#02303f;}.cls-2{fill:#0889ea;}</style></defs><g id="Layer_2" data-name="Layer 2"><g id="footer"><path id="Q" class="cls-1" d="M89.85,25.85c.29-.28.57-.58.83-.88A15,15,0,0,0,78.25.15a14.83,14.83,0,0,0-7.54,2.69,15,15,0,0,0,14.85,26l.45.46a2.72,2.72,0,0,0,2,.83h4.84l-3-3A.94.94,0,0,1,89.85,25.85ZM68.67,16.12A10.69,10.69,0,1,1,87.6,21.89,10.79,10.79,0,0,1,82,25.48a10.64,10.64,0,0,1-3.45.32A11.22,11.22,0,0,1,68.67,16.12Z"/><path id="C" class="cls-1" d="M58.14,19.74h3a15.08,15.08,0,0,1-29.26-2.45,14.65,14.65,0,0,1-.16-2.21A14.8,14.8,0,0,1,31.92,13a15.08,15.08,0,0,1,29.41-2.08H58.56A3,3,0,0,1,56,9.5,10.74,10.74,0,0,0,36.31,13a10.51,10.51,0,0,0-.21,2.12,10.75,10.75,0,0,0,19.69,6A2.83,2.83,0,0,1,58.14,19.74Z"/><rect class="cls-1" x="94.6" y="24.37" width="0.78" height="5.77"/><polygon class="cls-1" points="101.17 24.35 95.98 24.35 95.98 25.19 98.11 25.19 98.11 25.61 98.11 25.91 98.11 30.16 98.95 30.16 98.95 25.91 98.95 25.61 98.95 25.19 101.17 25.19 101.17 24.35"/><g id="A"><path class="cls-1" d="M32.56,28.83h0C30.44,25,18.52,3.45,16.69.16c-3.15,5.59-3.13,4.78,0,10.35,2.16,4,6.09,11,8.53,14.68s4,4.59,8.17,5.13Z"/><path class="cls-1" d="M10.24,11.83l0,0-2,3.64h0L0,30.32c6.7,0,9-6.9,12.19-11.68h0c.17-.32,1.64-3,2-3.56l0,0,0-.06h0A29.76,29.76,0,0,1,10.24,11.83Z"/><path class="cls-2" d="M10.24,11.83a29.76,29.76,0,0,0,4,3.16h0c1.65-2.35-.8-5.06-1.78-7.12Z"/></g></g></g></svg>