<svg xmlns="http://www.w3.org/2000/svg" viewBox="0 0 41.49 41.54"><defs><style>.cls-1{fill:#fff;}</style></defs><g id="Layer_2" data-name="Layer 2"><g id="Capa_1" data-name="Capa 1"><path class="cls-1" d="M9.08,3.56a.83.83,0,0,0-.58.24A.81.81,0,1,0,9.65,5a.82.82,0,0,0,0-1.16A.81.81,0,0,0,9.08,3.56Z"/><path class="cls-1" d="M5.18,3.56a.81.81,0,0,0-.81.81A.75.75,0,0,0,4.61,5,.81.81,0,1,0,5.74,3.79.79.79,0,0,0,5.18,3.56Z"/><path class="cls-1" d="M13,3.56a.83.83,0,0,0-.58.24A.81.81,0,0,0,13.54,5a.82.82,0,0,0,0-1.16A.81.81,0,0,0,13,3.56Z"/><path class="cls-1" d="M38.1,0H3.4A3.4,3.4,0,0,0,0,3.4H0V27.75a3.4,3.4,0,0,0,3.4,3.4h9.35A11.46,11.46,0,0,0,20,34.37v1.77A2.78,2.78,0,0,0,18.13,38h-9a.81.81,0,1,0,0,1.62h9a2.75,2.75,0,0,0,5.26,0h9a.81.81,0,0,0,0-1.62h-9a2.78,2.78,0,0,0-1.82-1.83v-1.8a11.43,11.43,0,0,0,7.18-3.22h9.34a3.4,3.4,0,0,0,3.4-3.4h0V3.4A3.4,3.4,0,0,0,38.09,0h0ZM23.3,32.41a15.57,15.57,0,0,0,1.52-5.17h4.8A9.94,9.94,0,0,1,23.3,32.41ZM19,30.17a18.6,18.6,0,0,1-.69-2.93h4.88a18.6,18.6,0,0,1-.69,2.93c-.59,1.78-1.31,2.58-1.75,2.58S19.59,32,19,30.17Zm-8.14-7.31a10,10,0,0,1,.39-2.76h5.24q-.12,1.37-.12,2.76a20.94,20.94,0,0,0,.12,2.75H11.25A9.83,9.83,0,0,1,10.86,22.86Zm7.13,0c0-1,.05-1.87.13-2.76h5.26c.08.89.13,1.81.13,2.76s-.05,1.87-.13,2.75H18.12C18,24.75,18,23.8,18,22.86Zm12.65,0a9.83,9.83,0,0,1-.39,2.75H25c.08-.9.12-1.83.12-2.75A21.17,21.17,0,0,0,25,20.1h5.24A10,10,0,0,1,30.64,22.86Zm-5.82-4.38A15.69,15.69,0,0,0,23.3,13.3a10,10,0,0,1,6.32,5.18ZM22.5,15.55a18.6,18.6,0,0,1,.69,2.93H18.31A18.6,18.6,0,0,1,19,15.55c.59-1.78,1.31-2.58,1.75-2.58S21.91,13.77,22.5,15.55Zm-5.82,2.93h-4.8A10,10,0,0,1,18.2,13.3,15.69,15.69,0,0,0,16.68,18.48Zm0,8.76a15.57,15.57,0,0,0,1.52,5.17,9.94,9.94,0,0,1-6.32-5.17Zm4.07,12.64a1.14,1.14,0,1,1,1.13-1.15v0A1.14,1.14,0,0,1,20.75,39.88ZM38.1,29.5h-8a11.51,11.51,0,1,0-18.8,0H3.4a1.78,1.78,0,0,1-1.78-1.75v-19H17.1a.81.81,0,1,0,0-1.62H1.62V3.4A1.78,1.78,0,0,1,3.4,1.62H38.1A1.78,1.78,0,0,1,39.88,3.4V7.13H24.4a.81.81,0,1,0,0,1.62H39.88v19a1.78,1.78,0,0,1-1.78,1.78Z"/><path class="cls-1" d="M20.75,7.14a.81.81,0,1,0,.58.24h0A.81.81,0,0,0,20.75,7.14Z"/></g></g></svg>