<svg xmlns="http://www.w3.org/2000/svg" viewBox="0 0 41.5 41.5"><defs><style>.cls-1{fill:#fff;}</style></defs><g id="Layer_2" data-name="Layer 2"><g id="Capa_1" data-name="Capa 1"><path class="cls-1" d="M29.67,11H24.41a.81.81,0,1,0,0,1.62h4.45V28.86H12.64V12.64h4.47a.81.81,0,0,0,0-1.62H11.83a.81.81,0,0,0-.81.81V29.67a.81.81,0,0,0,.81.81H29.67a.81.81,0,0,0,.81-.81V11.83a.81.81,0,0,0-.81-.81Z"/><path class="cls-1" d="M14.59,15.4V19a.81.81,0,0,0,.81.81H19a.82.82,0,0,0,.81-.81V15.4a.81.81,0,0,0-.81-.81H15.4a.81.81,0,0,0-.81.81Zm1.62.81h2v2h-2Z"/><path class="cls-1" d="M22.53,16.21H26.1a.81.81,0,0,0,0-1.62H22.53a.81.81,0,0,0,0,1.62Z"/><path class="cls-1" d="M22.53,19.75H26.1a.81.81,0,1,0,0-1.62H22.53a.81.81,0,1,0,0,1.62Z"/><path class="cls-1" d="M22.53,26.91H26.1a.81.81,0,0,0,.81-.81V22.53a.81.81,0,0,0-1.62,0v2.76H22.53a.81.81,0,1,0,0,1.62Z"/><path class="cls-1" d="M22.53,23.34a.81.81,0,0,0,.81-.81.77.77,0,0,0-.23-.57.81.81,0,1,0-.58,1.38Z"/><path class="cls-1" d="M19,25.29H15.4a.81.81,0,0,0,0,1.62H19a.81.81,0,1,0,0-1.62Z"/><path class="cls-1" d="M19,21.75H15.4a.81.81,0,1,0,0,1.62H19a.81.81,0,0,0,0-1.62Z"/><path class="cls-1" d="M40.69,21.56a.81.81,0,0,0,0-1.62H34.37V17h3.08a.81.81,0,0,0,0-1.62H34.37V12.48h6.32a.81.81,0,1,0,0-1.62H34.32a4.37,4.37,0,0,0-3.68-3.68V.81A.81.81,0,0,0,29,.81V7.13H26.1V4.05a.81.81,0,0,0-1.62,0V7.13H21.56V.81a.81.81,0,0,0-1.62,0V7.13H17V4.05a.81.81,0,1,0-1.62,0V7.13H12.48V.81a.81.81,0,1,0-1.62,0V7.18a4.37,4.37,0,0,0-3.68,3.68H.81a.81.81,0,1,0,0,1.62H7.13V15.4H4.05a.81.81,0,0,0,0,1.62H7.13v2.92H.81a.81.81,0,0,0,0,1.62H7.13v2.92H4.05a.81.81,0,0,0,0,1.62H7.13V29H.81a.81.81,0,0,0,0,1.62H7.18a4.37,4.37,0,0,0,3.68,3.68v6.37a.81.81,0,0,0,1.62,0h0V34.37H15.4v3.08a.81.81,0,0,0,1.62,0V34.37h2.92v6.32a.81.81,0,1,0,1.62,0h0V34.37h2.92v3.08a.81.81,0,0,0,1.62,0V34.37H29v6.32a.81.81,0,0,0,1.62,0h0V34.32a4.37,4.37,0,0,0,3.68-3.68h6.37a.81.81,0,1,0,0-1.62H34.37V26.1h3.08a.81.81,0,1,0,0-1.62H34.37V21.56ZM32.75,30A2.78,2.78,0,0,1,30,32.75H11.51A2.78,2.78,0,0,1,8.75,30V11.51a2.78,2.78,0,0,1,2.76-2.76H30a2.78,2.78,0,0,1,2.76,2.76Z"/><path class="cls-1" d="M20.75,12.64a.81.81,0,0,0,.57-.23.84.84,0,0,0,.24-.58.81.81,0,0,0-1.62,0,.84.84,0,0,0,.24.58A.81.81,0,0,0,20.75,12.64Z"/></g></g></svg>