<svg xmlns="http://www.w3.org/2000/svg" viewBox="0 0 41.44 41.53"><defs><style>.cls-1{fill:#fff;}</style></defs><g id="Layer_2" data-name="Layer 2"><g id="Capa_1" data-name="Capa 1"><path class="cls-1" d="M20.75,8.75a.78.78,0,0,0,.57-.24.81.81,0,1,0-1.14-1.15.81.81,0,0,0,0,1.14h0A.78.78,0,0,0,20.75,8.75Z"/><path class="cls-1" d="M38.1,0H3.4A3.4,3.4,0,0,0,0,3.4H0V27.75a3.4,3.4,0,0,0,3.4,3.4h9.09a11.22,11.22,0,0,0,8,10.35.9.9,0,0,0,.46,0,11.22,11.22,0,0,0,8-10.35H38a3.4,3.4,0,0,0,3.4-3.4h0V3.4A3.4,3.4,0,0,0,38,0h.06ZM27.4,30.69a9.67,9.67,0,0,1-6.65,9.15,9.67,9.67,0,0,1-6.65-9.15V26.28l6.66-2,6.64,2ZM38.1,29.5H29V25.68a.8.8,0,0,0-.58-.77L21,22.64a.76.76,0,0,0-.47,0l-7.47,2.27a.8.8,0,0,0-.58.77V29.5H3.4a1.78,1.78,0,0,1-1.78-1.75v-19H17.1a.81.81,0,1,0,0-1.62H1.62V3.4A1.78,1.78,0,0,1,3.4,1.62H38.1A1.78,1.78,0,0,1,39.88,3.4V7.13H24.4a.81.81,0,1,0,0,1.62H39.88v19a1.78,1.78,0,0,1-1.78,1.78Z"/><path class="cls-1" d="M9.08,3.56a.83.83,0,0,0-.58.24A.81.81,0,1,0,9.65,5a.82.82,0,0,0,0-1.16A.81.81,0,0,0,9.08,3.56Z"/><path class="cls-1" d="M5.18,3.56a.81.81,0,0,0-.81.81A.75.75,0,0,0,4.61,5,.81.81,0,1,0,5.74,3.79.79.79,0,0,0,5.18,3.56Z"/><path class="cls-1" d="M13,3.56a.84.84,0,0,0-.58.24A.81.81,0,0,0,13,5.18.81.81,0,0,0,13.54,5a.82.82,0,0,0,0-1.16A.81.81,0,0,0,13,3.56Z"/><path class="cls-1" d="M22.37,30.14l-2.12,2.11-1.1-1.1A.81.81,0,0,0,18,32.3L19.68,34a.81.81,0,0,0,1.15,0h0l2.68-2.69a.82.82,0,0,0-.11-1.14A.8.8,0,0,0,22.37,30.14Z"/><path class="cls-1" d="M30.65,11.18H9.24a.82.82,0,0,0-.81.81v7.14a.81.81,0,0,0,.81.81H30.65a.81.81,0,0,0,.81-.81V12A.82.82,0,0,0,30.65,11.18Zm-.81,7.14H10.05V12.8H29.84Z"/><path class="cls-1" d="M24.35,16.37a.78.78,0,0,0,.57-.24A.81.81,0,1,0,23.78,15a.81.81,0,0,0,0,1.14h0A.78.78,0,0,0,24.35,16.37Z"/><path class="cls-1" d="M19.94,16.37a.78.78,0,0,0,.58-.24.82.82,0,1,0-1.16,0h0A.78.78,0,0,0,19.94,16.37Z"/><path class="cls-1" d="M15.54,16.37a.78.78,0,0,0,.57-.24A.81.81,0,1,0,15,15a.81.81,0,0,0,0,1.14h0A.78.78,0,0,0,15.54,16.37Z"/></g></g></svg>