<svg xmlns="http://www.w3.org/2000/svg" viewBox="0 0 41.56 41.52"><defs><style>.cls-1{fill:#fff;}</style></defs><g id="Layer_2" data-name="Layer 2"><g id="Capa_1" data-name="Capa 1"><path class="cls-1" d="M20.75,7.13A.8.8,0,0,0,20,8a.8.8,0,0,0,1.36.57h0a.81.81,0,0,0,0-1.14A.8.8,0,0,0,20.75,7.13Z"/><path class="cls-1" d="M38.1,0H3.4A3.4,3.4,0,0,0,0,3.4H0V27.75a3.4,3.4,0,0,0,3.4,3.4h9v3.36a4.38,4.38,0,1,0,7,0V31.12H25V38a3.5,3.5,0,1,0,7,0h0v-6.9h6.16a3.4,3.4,0,0,0,3.4-3.4h0V3.4A3.4,3.4,0,0,0,38.16,0ZM15.89,19.82a2.76,2.76,0,0,0,2.75-2.76V14.34a4.71,4.71,0,1,1-6.58,1.07,4.94,4.94,0,0,1,1.07-1.07v2.72A2.77,2.77,0,0,0,15.89,19.82Zm0,20.06a2.77,2.77,0,0,1-2.76-2.76,2.82,2.82,0,0,1,.69-1.82.78.78,0,0,0,.2-.53V24.19a6.41,6.41,0,0,0,3.73,0V34.75a.78.78,0,0,0,.2.53,2.77,2.77,0,0,1-.25,3.9,2.8,2.8,0,0,1-1.81.68ZM30.32,38a1.87,1.87,0,0,1-3.73,0V29.83h3.73Zm-1.87-20.5a1,1,0,0,1-1-1V13.8h1.94v2.74A1,1,0,0,1,28.45,17.52Zm9.65,12H31.91a1.62,1.62,0,0,0-1.58-1.29H29.26V19a2.6,2.6,0,0,0,1.79-2.47V13a.81.81,0,0,0-.81-.81H26.67a.81.81,0,0,0-.81.81v3.55A2.61,2.61,0,0,0,27.64,19v9.2H26.57A1.6,1.6,0,0,0,25,29.5H19.37V23.42a6.32,6.32,0,0,0-1.25-11.19.83.83,0,0,0-.75.09A.81.81,0,0,0,17,13v4.07a1.14,1.14,0,0,1-2.27.21.74.74,0,0,1,0-.21V13a.81.81,0,0,0-.35-.67.83.83,0,0,0-.75-.09A6.33,6.33,0,0,0,12.4,23.42V29.5h-9a1.78,1.78,0,0,1-1.78-1.75v-19H17.1a.81.81,0,1,0,0-1.62H1.62V3.4A1.78,1.78,0,0,1,3.4,1.62H38.1A1.78,1.78,0,0,1,39.88,3.4V7.13H24.4a.81.81,0,1,0,0,1.62H39.88v19A1.78,1.78,0,0,1,38.1,29.5Z"/><path class="cls-1" d="M9.08,3.56a.83.83,0,0,0-.58.24A.81.81,0,1,0,9.65,5a.82.82,0,0,0,0-1.16A.85.85,0,0,0,9.08,3.56Z"/><path class="cls-1" d="M5.18,3.56a.81.81,0,0,0-.81.81A.75.75,0,0,0,4.61,5a.81.81,0,1,0,.57-1.39Z"/><path class="cls-1" d="M13,3.56a.83.83,0,0,0-.58.24A.81.81,0,0,0,13.54,5a.82.82,0,0,0,0-1.16A.85.85,0,0,0,13,3.56Z"/><path class="cls-1" d="M15.89,36.32a.86.86,0,1,0,.57.28A.79.79,0,0,0,15.89,36.32Z"/></g></g></svg>