<svg id="Capa_1" data-name="Capa 1" xmlns="http://www.w3.org/2000/svg" viewBox="0 0 150 150"><defs><style>.cls-1{fill:#fff;}.cls-2{fill:#02303f;}.cls-3{fill:#0885e6;}</style></defs><title>[ACQ] Diseño Interfaz_iconografia</title><path class="cls-1" d="M75,94.2h0A19.2,19.2,0,1,1,94.49,75,19.35,19.35,0,0,1,75,94.2"/><g id="A"><path class="cls-2" d="M85.65,82.9h0L75,63.66c-2.11,3.74-2.11,3.2,0,6.94,1.45,2.69,4.08,7.35,5.72,9.85s2.65,3.08,5.48,3.45Z"/><path class="cls-2" d="M70.67,71.49h0L69.3,74h0l-5.5,10c4.5,0,6.06-4.63,8.18-7.84h0c.11-.21,1.1-2,1.32-2.39v0l0,0h0A20.28,20.28,0,0,1,70.67,71.49Z"/><path class="cls-3" d="M70.67,71.49a20.28,20.28,0,0,0,2.66,2.12h0c1.11-1.58-.53-3.4-1.19-4.78Z"/></g></svg>