<svg id="Capa_1" data-name="Capa 1" xmlns="http://www.w3.org/2000/svg" viewBox="0 0 150 150"><defs><style>.cls-1{fill:#fff;}</style></defs><title>[ACQ] Diseño Interfaz_iconografia</title><path class="cls-1" d="M83.92,65.27H78.66a.81.81,0,0,0,0,1.62h4.45V83.11H66.89V66.89h4.47a.81.81,0,0,0,0-1.62H66.08a.81.81,0,0,0-.81.81V83.92a.81.81,0,0,0,.81.81H83.92a.81.81,0,0,0,.81-.81V66.08A.81.81,0,0,0,83.92,65.27Z"/><path class="cls-1" d="M68.84,69.65v3.57a.81.81,0,0,0,.81.81h3.57a.82.82,0,0,0,.81-.81V69.65a.81.81,0,0,0-.81-.81H69.65A.81.81,0,0,0,68.84,69.65Zm1.62.81h2v2h-2Z"/><path class="cls-1" d="M76.78,70.46h3.57a.81.81,0,0,0,0-1.62H76.78a.81.81,0,1,0,0,1.62Z"/><path class="cls-1" d="M76.78,74h3.57a.81.81,0,0,0,0-1.62H76.78a.81.81,0,0,0,0,1.62Z"/><path class="cls-1" d="M76.78,81.16h3.57a.81.81,0,0,0,.81-.81V76.78a.81.81,0,0,0-1.62,0v2.76H76.78a.81.81,0,1,0,0,1.62Z"/><path class="cls-1" d="M76.78,77.59a.81.81,0,0,0,.58-1.38.81.81,0,1,0-1.15,1.15A.81.81,0,0,0,76.78,77.59Z"/><path class="cls-1" d="M73.22,79.54H69.65a.81.81,0,1,0,0,1.62h3.57a.81.81,0,0,0,0-1.62Z"/><path class="cls-1" d="M73.22,76H69.65a.81.81,0,0,0,0,1.62h3.57a.81.81,0,0,0,0-1.62Z"/><path class="cls-1" d="M94.94,75.81a.81.81,0,0,0,0-1.62H88.62V71.27H91.7a.81.81,0,0,0,0-1.62H88.62V66.73h6.32a.81.81,0,0,0,0-1.62H88.57a4.37,4.37,0,0,0-3.68-3.68V55.06a.81.81,0,1,0-1.62,0v6.32H80.35V58.3a.81.81,0,1,0-1.62,0v3.08H75.81V55.06a.81.81,0,0,0-1.62,0v6.32H71.27V58.3a.81.81,0,1,0-1.62,0v3.08H66.73V55.06a.81.81,0,0,0-1.62,0v6.37a4.37,4.37,0,0,0-3.68,3.68H55.06a.81.81,0,0,0,0,1.62h6.32v2.92H58.3a.81.81,0,0,0,0,1.62h3.08v2.92H55.06a.81.81,0,0,0,0,1.62h6.32v2.92H58.3a.81.81,0,0,0,0,1.62h3.08v2.92H55.06a.81.81,0,1,0,0,1.62h6.37a4.37,4.37,0,0,0,3.68,3.68v6.37a.81.81,0,0,0,1.62,0V88.62h2.92V91.7a.81.81,0,1,0,1.62,0V88.62h2.92v6.32a.81.81,0,0,0,1.62,0V88.62h2.92V91.7a.81.81,0,0,0,1.62,0V88.62h2.92v6.32a.81.81,0,0,0,1.62,0V88.57a4.37,4.37,0,0,0,3.68-3.68h6.37a.81.81,0,0,0,0-1.62H88.62V80.35H91.7a.81.81,0,0,0,0-1.62H88.62V75.81ZM87,84.24A2.77,2.77,0,0,1,84.24,87H65.76A2.77,2.77,0,0,1,63,84.24V65.76A2.77,2.77,0,0,1,65.76,63H84.24A2.77,2.77,0,0,1,87,65.76Z"/><path class="cls-1" d="M75,66.89a.81.81,0,0,0,.57-.23.84.84,0,0,0,.24-.58.81.81,0,0,0-1.62,0,.84.84,0,0,0,.24.58A.81.81,0,0,0,75,66.89Z"/></svg>