<svg id="Capa_1" data-name="Capa 1" xmlns="http://www.w3.org/2000/svg" viewBox="0 0 150 150"><defs><style>.cls-1{fill:#fff;}</style></defs><title>[ACQ] Diseño Interfaz_iconografia</title><path class="cls-1" d="M75,62.41h8.54a.69.69,0,0,1,.71.45q1.5,3.06,3,6.09a.66.66,0,0,1-.05.76L75.43,87.26c-.31.46-.62.45-.92,0q-5.88-8.77-11.75-17.54a.68.68,0,0,1,0-.76c1-2,2-4.09,3-6.14a.65.65,0,0,1,.67-.41Zm-4,7.39,3.88,15.43h0L78.88,69.8Zm15.06,0h-.36c-1.86,0-3.72,0-5.58,0-.29,0-.4.07-.47.36Q78,76.86,76.33,83.59c-.09.35-.17.69-.26,1l.05,0Zm-16,0H63.89L73.8,84.62l.06,0Q72,77.19,70.13,69.81Zm8.75-.93a.64.64,0,0,0,0-.14c-.34-1.75-.69-3.5-1-5.25,0-.16-.12-.18-.25-.18H72.34c-.17,0-.22,0-.26.22-.26,1.36-.53,2.72-.8,4.08-.08.41-.16.83-.25,1.27Zm.94,0h6.39l0-.12-2.61-5.27c-.07-.16-.18-.17-.32-.17H79l-.28,0Zm-8.61-5.53-.14,0H66.7c-.19,0-.23.11-.29.23L63.9,68.61l-.12.26h6.33Z"/></svg>