<svg id="Capa_1" data-name="Capa 1" xmlns="http://www.w3.org/2000/svg" viewBox="0 0 150 150"><defs><style>.cls-1{fill:#fff;}</style></defs><title>[ACQ] Diseño Interfaz_iconografia</title><path class="cls-1" d="M63.33,57.81a.83.83,0,0,0-.58.24A.81.81,0,0,0,63.9,59.2a.82.82,0,0,0-.57-1.39Z"/><path class="cls-1" d="M59.43,57.81a.81.81,0,0,0-.57,1.39.83.83,0,0,0,1.15,0,.82.82,0,0,0-.58-1.39Z"/><path class="cls-1" d="M67.22,57.81a.83.83,0,0,0-.58.24.81.81,0,0,0,1.15,1.15.82.82,0,0,0-.57-1.39Z"/><path class="cls-1" d="M92.35,54.25H57.65a3.4,3.4,0,0,0-3.4,3.4V82a3.4,3.4,0,0,0,3.4,3.4H67a11.44,11.44,0,0,0,7.2,3.22v1.77a2.76,2.76,0,0,0-1.82,1.83h-9a.81.81,0,1,0,0,1.62h9a2.75,2.75,0,0,0,5.26,0h9a.81.81,0,1,0,0-1.62h-9a2.76,2.76,0,0,0-1.82-1.83V88.59A11.44,11.44,0,0,0,83,85.37h9.34a3.4,3.4,0,0,0,3.4-3.4V57.65a3.4,3.4,0,0,0-3.4-3.4ZM77.55,86.66a15.52,15.52,0,0,0,1.52-5.17h4.8a9.94,9.94,0,0,1-6.32,5.17Zm-4.3-2.24a18.31,18.31,0,0,1-.69-2.93h4.88a18.31,18.31,0,0,1-.69,2.93C76.16,86.2,75.44,87,75,87s-1.16-.8-1.75-2.58Zm-8.14-7.31a10.06,10.06,0,0,1,.39-2.76h5.24q-.12,1.37-.12,2.76c0,.92,0,1.85.12,2.75H65.5a10,10,0,0,1-.39-2.75Zm7.13,0c0-1,.05-1.87.13-2.76h5.26c.08.89.13,1.81.13,2.76s-.05,1.87-.13,2.75H72.37C72.29,79,72.24,78.05,72.24,77.11Zm12.65,0a10,10,0,0,1-.39,2.75H79.26c.08-.9.12-1.83.12-2.75s0-1.85-.12-2.76H84.5A10.06,10.06,0,0,1,84.89,77.11Zm-5.82-4.38a15.58,15.58,0,0,0-1.52-5.18,10,10,0,0,1,6.32,5.18ZM76.75,69.8a18.05,18.05,0,0,1,.69,2.93H72.56a18.05,18.05,0,0,1,.69-2.93c.59-1.78,1.31-2.58,1.75-2.58s1.16.8,1.75,2.58Zm-5.82,2.93h-4.8a10,10,0,0,1,6.32-5.18A15.58,15.58,0,0,0,70.93,72.73Zm0,8.76a15.52,15.52,0,0,0,1.52,5.17,9.94,9.94,0,0,1-6.32-5.17ZM75,94.13A1.14,1.14,0,1,1,76.13,93,1.13,1.13,0,0,1,75,94.13ZM92.35,83.75H84.4a11.51,11.51,0,1,0-18.8,0H57.65A1.78,1.78,0,0,1,55.87,82V63H71.35a.81.81,0,1,0,0-1.62H55.87V57.65a1.78,1.78,0,0,1,1.78-1.78h34.7a1.78,1.78,0,0,1,1.78,1.78v3.73H78.65a.81.81,0,1,0,0,1.62H94.13V82a1.78,1.78,0,0,1-1.78,1.78Z"/><path class="cls-1" d="M75,61.39a.81.81,0,0,0-.57.23.81.81,0,1,0,1.14,0A.81.81,0,0,0,75,61.39Z"/></svg>