<svg id="Capa_1" data-name="Capa 1" xmlns="http://www.w3.org/2000/svg" viewBox="0 0 150 150"><defs><style>.cls-1{fill:#fff;}</style></defs><title>[ACQ] Diseño Interfaz_iconografia</title><path class="cls-1" d="M75,63a.78.78,0,0,0,.57-.24.81.81,0,1,0-1.14,0A.78.78,0,0,0,75,63Z"/><path class="cls-1" d="M92.35,54.25H57.65a3.4,3.4,0,0,0-3.4,3.4V82a3.4,3.4,0,0,0,3.4,3.4h9.09a11.22,11.22,0,0,0,8,10.35.9.9,0,0,0,.46,0,11.22,11.22,0,0,0,8-10.35h9.09a3.4,3.4,0,0,0,3.4-3.4V57.65a3.4,3.4,0,0,0-3.4-3.4ZM81.65,84.94A9.67,9.67,0,0,1,75,94.09a9.67,9.67,0,0,1-6.65-9.15V80.53l6.66-2,6.64,2Zm10.7-1.19H83.27V79.93a.8.8,0,0,0-.58-.77l-7.44-2.27a.75.75,0,0,0-.47,0l-7.47,2.27a.8.8,0,0,0-.58.77v3.82H57.65A1.78,1.78,0,0,1,55.87,82V63H71.35a.81.81,0,1,0,0-1.62H55.87V57.65a1.78,1.78,0,0,1,1.78-1.78h34.7a1.78,1.78,0,0,1,1.78,1.78v3.73H78.65a.81.81,0,1,0,0,1.62H94.13V82a1.78,1.78,0,0,1-1.78,1.78Z"/><path class="cls-1" d="M63.33,57.81a.83.83,0,0,0-.58.24A.81.81,0,0,0,63.9,59.2a.82.82,0,0,0-.57-1.39Z"/><path class="cls-1" d="M59.43,57.81a.81.81,0,0,0-.57,1.39.83.83,0,0,0,1.15,0,.82.82,0,0,0-.58-1.39Z"/><path class="cls-1" d="M67.22,57.81a.84.84,0,0,0-.58.24.83.83,0,0,0,0,1.15.83.83,0,0,0,.58.23.81.81,0,0,0,.57-.23.82.82,0,0,0-.57-1.39Z"/><path class="cls-1" d="M76.62,84.39,74.5,86.5l-1.1-1.1a.81.81,0,0,0-1.14,1.15l1.67,1.67a.81.81,0,0,0,1.15,0l2.68-2.69a.81.81,0,0,0-1.14-1.14Z"/><path class="cls-1" d="M84.9,65.43H63.49a.82.82,0,0,0-.81.81v7.14a.81.81,0,0,0,.81.81H84.9a.81.81,0,0,0,.81-.81V66.24A.82.82,0,0,0,84.9,65.43Zm-.81,7.14H64.3V67.05H84.09Z"/><path class="cls-1" d="M78.6,70.62a.78.78,0,0,0,.57-.24.81.81,0,1,0-1.14,0A.78.78,0,0,0,78.6,70.62Z"/><path class="cls-1" d="M74.19,70.62a.78.78,0,0,0,.58-.24.82.82,0,1,0-1.15,0A.78.78,0,0,0,74.19,70.62Z"/><path class="cls-1" d="M69.79,70.62a.78.78,0,0,0,.57-.24.81.81,0,1,0-1.14,0A.78.78,0,0,0,69.79,70.62Z"/></svg>