<svg id="Capa_1" data-name="Capa 1" xmlns="http://www.w3.org/2000/svg" viewBox="0 0 150 150"><defs><style>.cls-1{fill:#fff;}</style></defs><title>[ACQ] Diseño Interfaz_iconografia</title><path class="cls-1" d="M91.85,74.48c-.73-.74-1.49-1.46-2.23-2.2-.12-.13-.19-.32-.32-.42-.43-.31-.88-.6-1.39-.94h0a.36.36,0,0,1-.21-.31l0,0,.06.16-.37-.27a26.86,26.86,0,0,0-5.12-3,16.91,16.91,0,0,0-11.5-1.06,24.24,24.24,0,0,0-8.14,4.07l-.36.26.05-.15-.12.07a.41.41,0,0,1-.25.32c-.28.24-.54.45-.8.65a9.45,9.45,0,0,0-.77.65c-.72.75-1.49,1.46-2.22,2.21a.64.64,0,0,0,0,1c.73.74,1.49,1.46,2.23,2.2.12.12.19.32.32.42.43.31.88.59,1.39.93l-.05,0a.41.41,0,0,1,.1.13.36.36,0,0,1,.25.15l.23.16a26.86,26.86,0,0,0,5.12,3A16.93,16.93,0,0,0,79.25,83.6a24.38,24.38,0,0,0,8.13-4.07l.36-.26,0,.06a1.49,1.49,0,0,1,.24-.14.65.65,0,0,1,.2,0l-.16,0c.55-.51,1.15-.89,1.65-1.39.72-.73,1.47-1.44,2.2-2.18A.64.64,0,0,0,91.85,74.48ZM59.32,75a28.42,28.42,0,0,1,9.86-6.77,9.75,9.75,0,0,0,0,13.53A28.44,28.44,0,0,1,59.32,75Zm20.39,6.09a7,7,0,0,1-10.62-1.4,8.51,8.51,0,0,1-1.42-5,7.87,7.87,0,0,1,2.74-5.85,6.9,6.9,0,0,1,10,.78A8.39,8.39,0,0,1,79.71,81.09Zm1.11.68a9.75,9.75,0,0,0,0-13.53A28.49,28.49,0,0,1,90.68,75,28.55,28.55,0,0,1,80.82,81.77Z"/><path class="cls-1" d="M70,77.86,69.08,77l1.13-1.12L72,74.1c.44-.44.72-.43,1.16,0s1.07,1.07,1.61,1.61l.21.19,3.34-3.34H76.84V71.34h1c.68,0,1.37,0,2,0a.57.57,0,0,1,.65.61c0,1,0,2,0,3h-1.2V73.51l-.14-.1a1.33,1.33,0,0,1-.18.31l-3.41,3.42c-.41.41-.71.41-1.13,0l-1.87-1.87Z"/><path class="cls-1" d="M72,78.68h1.18v1.19H72Z"/><path class="cls-1" d="M78,78.69v1.18H76.85V78.69Z"/><path class="cls-1" d="M75.59,78.68v1.19H74.42V78.68Z"/></svg>