<svg id="Capa_1" data-name="Capa 1" xmlns="http://www.w3.org/2000/svg" viewBox="0 0 150 150"><defs><style>.cls-1{fill:#fff;}</style></defs><title>[ACQ] Diseño Interfaz_iconografia</title><path class="cls-1" d="M75,61.38a.81.81,0,0,0-.57,1.38.8.8,0,0,0,1.14,0A.81.81,0,0,0,75,61.38Z"/><path class="cls-1" d="M92.35,54.25H57.65a3.4,3.4,0,0,0-3.4,3.4V82a3.4,3.4,0,0,0,3.4,3.4h9v3.36a4.38,4.38,0,1,0,7,0V85.37h5.6v6.9a3.49,3.49,0,0,0,7,0v-6.9h6.16a3.4,3.4,0,0,0,3.4-3.4V57.65A3.4,3.4,0,0,0,92.35,54.25ZM70.14,74.07a2.76,2.76,0,0,0,2.75-2.76V68.59a4.71,4.71,0,1,1-5.51,0v2.72a2.77,2.77,0,0,0,2.76,2.76Zm0,20.06a2.76,2.76,0,0,1-2.07-4.58.78.78,0,0,0,.2-.53V78.44a6.35,6.35,0,0,0,3.73,0V89a.78.78,0,0,0,.2.53,2.76,2.76,0,0,1-2.06,4.58Zm14.43-1.86a1.87,1.87,0,0,1-3.73,0V84.08h3.73ZM82.7,71.77a1,1,0,0,1-1-1V68.05h1.94v2.74A1,1,0,0,1,82.7,71.77Zm9.65,12H86.16a1.62,1.62,0,0,0-1.58-1.29H83.51v-9.2a2.6,2.6,0,0,0,1.79-2.47V67.24a.81.81,0,0,0-.81-.81H80.92a.81.81,0,0,0-.81.81v3.55a2.61,2.61,0,0,0,1.78,2.47v9.2H80.82a1.6,1.6,0,0,0-1.57,1.29H73.62V77.67a6.32,6.32,0,0,0-1.25-11.19.83.83,0,0,0-.75.09.82.82,0,0,0-.35.67v4.07a1.14,1.14,0,1,1-2.27,0V67.24a.82.82,0,0,0-.35-.67.83.83,0,0,0-.75-.09,6.32,6.32,0,0,0-1.25,11.19v6.08h-9A1.78,1.78,0,0,1,55.87,82V63H71.35a.81.81,0,1,0,0-1.62H55.87V57.65a1.78,1.78,0,0,1,1.78-1.78h34.7a1.78,1.78,0,0,1,1.78,1.78v3.73H78.65a.81.81,0,1,0,0,1.62H94.13V82A1.78,1.78,0,0,1,92.35,83.75Z"/><path class="cls-1" d="M63.33,57.81a.83.83,0,0,0-.58.24A.81.81,0,0,0,63.9,59.2a.82.82,0,0,0-.57-1.39Z"/><path class="cls-1" d="M59.43,57.81a.81.81,0,0,0-.57,1.39.83.83,0,0,0,1.15,0,.82.82,0,0,0-.58-1.39Z"/><path class="cls-1" d="M67.22,57.81a.83.83,0,0,0-.58.24.81.81,0,0,0,1.15,1.15.82.82,0,0,0-.57-1.39Z"/><path class="cls-1" d="M70.14,90.57A.81.81,0,0,0,69.56,92a.81.81,0,1,0,1.15-1.15A.81.81,0,0,0,70.14,90.57Z"/></svg>