<svg xmlns="http://www.w3.org/2000/svg" viewBox="0 0 63.75 63.75"><defs><style>.cls-1{fill:#0885e6;}.cls-2,.cls-3,.cls-4{fill:#fff;}.cls-2,.cls-4{stroke:#fff;stroke-miterlimit:10;}.cls-2{stroke-width:1.43px;}.cls-4{stroke-width:0.36px;}</style></defs><g id="Layer_2" data-name="Layer 2"><g id="Capa_1" data-name="Capa 1"><path class="cls-1" d="M31.87,0h0A31.87,31.87,0,0,1,63.75,31.87h0A31.88,31.88,0,0,1,31.87,63.75h0A31.87,31.87,0,0,1,0,31.87H0A31.87,31.87,0,0,1,31.87,0Z"/><path class="cls-2" d="M48.88,44.77H19.58V15.47a.72.72,0,0,0-1.43,0v29.3H16a.72.72,0,0,0-.17,1.43h2.31v2.14a.72.72,0,0,0,1.43.17.49.49,0,0,0,0-.17V46.2h29.3a.72.72,0,0,0,0-1.43Z"/><path class="cls-3" d="M22.88,29a.73.73,0,0,0,.78-.15l3.07-3.07,7.35,7.35a.72.72,0,0,0,1,0l2.36-2.35L48.38,41.71a.71.71,0,0,0,1-1L38,29.27a.72.72,0,0,0-1,0l-2.35,2.35-6.85-6.85,3.06-3.07a.72.72,0,0,0,0-1,.75.75,0,0,0-.51-.21H23.16a.71.71,0,0,0-.71.71h0v7.14A.71.71,0,0,0,22.88,29Z"/><path class="cls-4" d="M18.88,49.06a.72.72,0,0,1-.72-.72h0V15.47a.72.72,0,0,1,1.43,0V48.34a.71.71,0,0,1-.7.72Z"/><path class="cls-4" d="M48.88,46.2H16a.72.72,0,0,1-.17-1.43.49.49,0,0,1,.17,0H48.88a.72.72,0,0,1,0,1.43Z"/><path class="cls-4" d="M26.74,24.05a.71.71,0,0,1,.5.21l7.36,7.36L37,29.27a.72.72,0,0,1,1,0L49.39,40.7a.71.71,0,0,1-1,1L37.46,30.78,35.1,33.13a.72.72,0,0,1-1,0l-7.86-7.86a.72.72,0,0,1,0-1A.77.77,0,0,1,26.74,24.05Z"/></g></g></svg>