<svg xmlns="http://www.w3.org/2000/svg" xmlns:xlink="http://www.w3.org/1999/xlink" viewBox="0 0 71.42 72.07"><defs><style>.cls-1{fill:none;}.cls-2{fill:#fff;}.cls-3{clip-path:url(#clip-path);}.cls-4{fill:#0885e6;}</style><clipPath id="clip-path"><path class="cls-1" d="M31.87,0h0A31.87,31.87,0,0,1,63.75,31.87h0A31.88,31.88,0,0,1,31.87,63.75h0A31.87,31.87,0,0,1,0,31.87H0A31.87,31.87,0,0,1,31.87,0Z"/></clipPath></defs><g id="Layer_2" data-name="Layer 2"><g id="Capa_1" data-name="Capa 1"><path class="cls-2" d="M31.87,0h0A31.87,31.87,0,0,1,63.75,31.87h0A31.88,31.88,0,0,1,31.87,63.75h0A31.87,31.87,0,0,1,0,31.87H0A31.87,31.87,0,0,1,31.87,0Z"/><g class="cls-3"><path class="cls-4" d="M42.27,32.2H37.49a1.21,1.21,0,0,0-1.13.81L35.1,36.78,33.88,33a1.22,1.22,0,0,0-1.14-.81H31.26l-2.17-8.65a1.19,1.19,0,0,0-1.44-.87,1.2,1.2,0,0,0-.87.87L24.61,32.2H20.77a1.2,1.2,0,0,0-.22,2.39h5a1.2,1.2,0,0,0,1.15-.91l1.24-4.92,1.23,4.92a1.2,1.2,0,0,0,1.15.91h1.56L34,40.94a1.21,1.21,0,0,0,1.13.81,1.22,1.22,0,0,0,1.14-.81l2.11-6.35H42.3a1.2,1.2,0,0,0,0-2.39Z"/><path class="cls-4" d="M69.08,61.33c-1.54-1.45-17.2-15.73-19.46-17.75a21.5,21.5,0,1,0-6.74,6.73L60.88,70A6,6,0,1,0,70,62.15a6.16,6.16,0,0,0-.87-.82ZM17.88,45.59a19.11,19.11,0,1,1,27.07,0,19.12,19.12,0,0,1-27.07,0ZM45,49h0l-.11-.16a20.6,20.6,0,0,0,3.36-3.37L51,48l-3.6,3.6Z"/><path class="cls-4" d="M44.35,21.49A1.19,1.19,0,0,0,42.51,23h0a14.33,14.33,0,1,1-7.31-4.73,1.19,1.19,0,0,0,.62-2.3,16.73,16.73,0,1,0,8.53,5.51Z"/></g></g></g></svg>