<svg xmlns="http://www.w3.org/2000/svg" viewBox="0 0 63.75 63.75"><defs><style>.cls-1{fill:#fff;}.cls-2{fill:#0885e6;}</style></defs><g id="Layer_2" data-name="Layer 2"><g id="Capa_1" data-name="Capa 1"><path class="cls-1" d="M31.87,0h0A31.87,31.87,0,0,1,63.75,31.87h0A31.88,31.88,0,0,1,31.87,63.75h0A31.87,31.87,0,0,1,0,31.87H0A31.87,31.87,0,0,1,31.87,0Z"/><path class="cls-2" d="M42.22,16.14H22.15a5.59,5.59,0,0,0-5.59,5.59V41.79a5.59,5.59,0,0,0,5.59,5.59H42.22a5.59,5.59,0,0,0,5.59-5.59V21.73A5.59,5.59,0,0,0,42.22,16.14ZM46,41.79a3.76,3.76,0,0,1-3.76,3.76H22.15a3.76,3.76,0,0,1-3.76-3.76h0V21.73A3.76,3.76,0,0,1,22.15,18H42.22A3.76,3.76,0,0,1,46,21.73h0Z"/><path class="cls-2" d="M43,23H29a2.87,2.87,0,0,0-5.45,0H21.4a.92.92,0,0,0-.82,1,.93.93,0,0,0,.82.82h2.18a2.87,2.87,0,0,0,5.45,0H43A.92.92,0,1,0,43.16,23,.61.61,0,0,0,43,23Z"/><path class="cls-2" d="M43,30.88H40.8a2.88,2.88,0,0,0-5.46,0H21.4a.92.92,0,1,0,0,1.84H35.34a2.88,2.88,0,0,0,5.46,0H43a.92.92,0,1,0,0-1.84Z"/><path class="cls-2" d="M43,38.69H33a2.87,2.87,0,0,0-5.45,0h-6.1a.92.92,0,0,0-.82,1,.93.93,0,0,0,.82.82h6.1a2.87,2.87,0,0,0,5.45,0H43a.92.92,0,1,0,.19-1.83Z"/></g></g></svg>